<svg width="20px" height="20px" version="1.1" id="Capa_1" xmlns="http://www.w3.org/2000/svg" x="0px" y="0px" viewBox="0 0 487.66 487.66" style="enable-background:new 0 0 487.66 487.66;" xml:space="preserve"><g><g><path fill="rgba(31, 30, 30, 0.6)" d="M381.63,158.93c-44.1-22.7-93-35.2-137.7-35.2s-93.6,12.5-137.7,35.2c-46.9,24.1-83.8,57.9-104.1,95.1 c-4.6,8.4-1.5,18.9,6.9,23.5c2.6,1.4,5.5,2.1,8.3,2.1c6.1,0,12.1-3.3,15.2-9c26.8-49.1,83.4-84.4,140.3-101.2 c-23.9,20.2-39.2,50.5-39.2,84.3c0,60.9,49.4,110.2,110.2,110.2c60.9,0,110.2-49.4,110.2-110.2c0-33.8-15.2-64-39.2-84.3 c56.9,16.8,113.5,52.1,140.3,101.2c3.1,5.8,9.1,9,15.2,9c2.8,0,5.6-0.7,8.3-2.1c8.4-4.6,11.5-15.1,6.9-23.5 C465.43,216.83,428.53,183.03,381.63,158.93z M243.93,299.23c-25.1,0-45.4-20.2-45.5-45.3c-0.1-25.4,20.1-45.7,45.5-45.8 c0.8,0,1.5,0,2.3,0.1c-1.5,3.8-2.3,8-2.3,12.3c0.1,18.4,14.9,33.2,33.3,33.2c4.3,0,8.4-0.8,12.2-2.3c0,0.7,0.1,1.3,0.1,2 C289.43,278.83,269.33,299.13,243.93,299.23z"></path></g></g></svg>